# Blender v2.69 (sub 0) OBJ File: ''
# www.blender.org
mtllib BackTrees.mtl
o Circle.001
v 2.249543 2.017360 -11.309306
v 2.249543 3.099983 -11.309303
v 0.000000 2.017360 -11.530866
v 8.153559 2.017354 8.153549
v 8.153559 3.099977 8.153550
v 9.587570 2.017354 6.406199
v -11.309303 2.017355 2.249560
v -11.309303 3.099978 2.249561
v -10.653131 2.017354 4.412670
v 6.406193 2.017359 -9.587572
v 6.406193 3.099983 -9.587570
v 4.412654 2.017360 -10.653138
v 4.412676 2.017352 10.653128
v 4.412676 3.099976 10.653130
v 6.406212 2.017352 9.587560
v -11.309302 2.017356 -2.249560
v -11.309302 3.099981 -2.249560
v -11.530866 2.017356 -0.000001
v 9.587557 2.017358 -6.406217
v 9.587557 3.099981 -6.406217
v 8.153543 2.017359 -8.153563
v 0.000003 2.017352 11.530866
v 0.000003 3.099976 11.530868
v 2.249565 2.017352 11.309301
v -9.587565 2.017358 -6.406205
v -9.587565 3.099981 -6.406205
v -10.653131 2.017358 -4.412669
v 11.309300 2.017356 -2.249572
v 11.309300 3.099981 -2.249572
v 10.653125 2.017358 -4.412683
v -6.406205 2.017359 -9.587564
v -6.406205 3.099983 -9.587562
v -8.153554 2.017359 -8.153552
v -4.412670 2.017352 10.653132
v -4.412670 3.099976 10.653134
v -2.249557 2.017352 11.309303
v 11.309304 2.017355 2.249550
v 11.309304 3.099978 2.249551
v 11.530866 2.017356 -0.000011
v -2.249560 2.017360 -11.309302
v -2.249560 3.099983 -11.309300
v -4.412672 2.017360 -10.653131
v -8.153554 2.017354 8.153554
v -8.153554 3.099977 8.153555
v -6.406205 2.017352 9.587565
v 9.587570 3.099977 6.406199
v 10.653134 2.017354 4.412664
v -10.653131 3.099978 4.412670
v -9.587565 2.017354 6.406207
v 4.412654 3.099983 -10.653136
v 6.406212 3.099976 9.587562
v -11.530866 3.099979 -0.000001
v 8.153543 3.099983 -8.153563
v 2.249565 3.099976 11.309303
v -10.653131 3.099981 -4.412669
v 10.653125 3.099981 -4.412683
v -8.153554 3.099983 -8.153551
v -2.249557 3.099976 11.309305
v 11.530866 3.099979 -0.000010
v -4.412672 3.099983 -10.653129
v -6.406205 3.099976 9.587567
v 10.653134 3.099978 4.412664
v 0.000000 3.099983 -11.530863
v -9.587565 3.099977 6.406207
vt 0.825717 0.655207
vt 0.825716 0.746498
vt 0.662254 0.655206
vt 0.662399 0.400664
vt 0.662398 0.491956
vt 0.498933 0.400663
vt 0.171532 0.775038
vt 0.171533 0.866329
vt 0.008068 0.775041
vt 0.171714 0.526075
vt 0.171714 0.617367
vt 0.008247 0.526074
vt 0.989328 0.400671
vt 0.989326 0.491962
vt 0.825864 0.400667
vt 0.498463 0.775035
vt 0.498463 0.866327
vt 0.334997 0.775036
vt 0.498646 0.526075
vt 0.498647 0.617367
vt 0.335180 0.526075
vt 0.336601 0.279267
vt 0.336601 0.370559
vt 0.173136 0.279267
vt 0.825396 0.775037
vt 0.825395 0.866330
vt 0.661929 0.775036
vt 0.825576 0.526074
vt 0.825576 0.617365
vt 0.662112 0.526074
vt 0.171856 0.655205
vt 0.171856 0.746497
vt 0.008388 0.655205
vt 0.334743 0.900690
vt 0.334743 0.991982
vt 0.171279 0.900690
vt 0.172000 0.400666
vt 0.172001 0.491958
vt 0.008532 0.400669
vt 0.498789 0.655205
vt 0.498788 0.746497
vt 0.335323 0.655204
vt 0.661674 0.900689
vt 0.661674 0.991981
vt 0.498208 0.900690
vt 0.498933 0.491955
vt 0.335467 0.400664
vt 0.988607 0.900688
vt 0.988607 0.991981
vt 0.825141 0.900688
vt 0.989180 0.746498
vt 0.989180 0.655208
vt 0.825862 0.491958
vt 0.334998 0.866327
vt 0.335180 0.617367
vt 0.173136 0.370559
vt 0.009670 0.279267
vt 0.661928 0.866328
vt 0.662112 0.617366
vt 0.988862 0.775039
vt 0.988861 0.866332
vt 0.171278 0.991981
vt 0.007814 0.900688
vt 0.989040 0.526074
vt 0.989041 0.617365
vt 0.335323 0.746497
vt 0.498208 0.991982
vt 0.335467 0.491956
vt 0.662254 0.746498
vt 0.825141 0.991981
vt 0.008069 0.866332
vt 0.008247 0.617367
vt 0.008389 0.746498
vt 0.008534 0.491962
vt 0.009670 0.370559
vt 0.007813 0.991980
vn -0.098015 -0.000003 0.995185
vn -0.773010 0.000001 -0.634393
vn 0.956940 0.000000 -0.290285
vn -0.471396 -0.000002 0.881922
vn -0.471397 0.000002 -0.881921
vn 0.995185 -0.000002 0.098018
vn -0.773010 0.000000 0.634394
vn -0.098018 0.000002 -0.995185
vn 0.881921 0.000000 0.471396
vn -0.956940 0.000002 0.290286
vn 0.634393 -0.000002 0.773011
vn 0.290283 0.000002 -0.956941
vn -0.995185 0.000000 -0.098017
vn 0.290284 -0.000002 0.956941
vn 0.634393 0.000000 -0.773011
vn -0.881922 0.000000 -0.471396
vn 0.881922 0.000000 -0.471396
vn -0.290282 -0.000002 0.956941
vn -0.634393 0.000001 -0.773011
vn 0.995185 0.000000 -0.098017
vn -0.634393 0.000000 0.773011
vn -0.290285 0.000002 -0.956940
vn 0.956940 0.000000 0.290285
vn -0.881921 0.000000 0.471397
vn 0.773010 -0.000001 0.634393
vn 0.098018 0.000002 -0.995185
vn -0.995185 0.000000 0.098018
vn 0.471398 -0.000001 0.881921
vn 0.471397 0.000002 -0.881921
vn -0.956941 0.000000 -0.290283
vn 0.098019 -0.000003 0.995185
vn 0.773010 0.000000 -0.634393
vn -0.098018 -0.000003 0.995185
vn -0.773011 0.000000 -0.634392
vn -0.471396 -0.000001 0.881921
vn -0.471397 0.000001 -0.881921
vn 0.995185 0.000001 0.098018
vn -0.773009 -0.000001 0.634395
vn 0.881922 0.000000 0.471396
vn -0.956940 0.000000 0.290286
vn 0.634393 -0.000001 0.773010
vn 0.290285 0.000002 -0.956940
vn 0.634394 0.000002 -0.773010
vn -0.881922 0.000000 -0.471395
vn -0.290283 -0.000003 0.956941
vn -0.634394 0.000001 -0.773010
vn 0.995185 -0.000001 -0.098017
vn -0.634391 -0.000002 0.773012
vn 0.956940 0.000001 0.290285
vn 0.773010 0.000000 0.634394
vn 0.098016 0.000002 -0.995185
vn -0.995185 0.000001 0.098018
vn 0.471397 -0.000002 0.881921
vn 0.471397 0.000001 -0.881921
vn -0.956941 0.000001 -0.290283
vn 0.098017 -0.000002 0.995185
usemtl None
s off
f 1/1/1 2/2/1 3/3/1
f 4/4/2 5/5/2 6/6/2
f 7/7/3 8/8/3 9/9/3
f 10/10/4 11/11/4 12/12/4
f 13/13/5 14/14/5 15/15/5
f 16/16/6 17/17/6 18/18/6
f 19/19/7 20/20/7 21/21/7
f 22/22/8 23/23/8 24/24/8
f 25/25/9 26/26/9 27/27/9
f 28/28/10 29/29/10 30/30/10
f 31/31/11 32/32/11 33/33/11
f 34/34/12 35/35/12 36/36/12
f 37/37/13 38/38/13 39/39/13
f 40/40/14 41/41/14 42/42/14
f 43/43/15 44/44/15 45/45/15
f 6/6/16 46/46/16 47/47/16
f 9/48/17 48/49/17 49/50/17
f 50/51/18 1/1/18 12/52/18
f 15/15/19 51/53/19 4/4/19
f 18/18/20 52/54/20 7/7/20
f 21/21/21 53/55/21 10/10/21
f 24/24/22 54/56/22 13/57/22
f 27/27/23 55/58/23 16/16/23
f 30/30/24 56/59/24 19/19/24
f 33/60/25 57/61/25 25/25/25
f 36/36/26 58/62/26 22/63/26
f 39/64/27 59/65/27 28/28/27
f 42/42/28 60/66/28 31/31/28
f 45/45/29 61/67/29 34/34/29
f 47/47/30 62/68/30 37/37/30
f 3/3/31 63/69/31 40/40/31
f 49/50/32 64/70/32 43/43/32
f 2/2/33 63/69/33 3/3/33
f 5/5/34 46/46/34 6/6/34
f 8/8/3 48/71/3 9/9/3
f 11/11/35 50/72/35 12/12/35
f 14/14/36 51/53/36 15/15/36
f 17/17/37 52/54/37 18/18/37
f 20/20/38 53/55/38 21/21/38
f 23/23/8 54/56/8 24/24/8
f 26/26/39 55/58/39 27/27/39
f 29/29/40 56/59/40 30/30/40
f 32/32/41 57/73/41 33/33/41
f 35/35/42 58/62/42 36/36/42
f 38/38/13 59/74/13 39/39/13
f 41/41/14 60/66/14 42/42/14
f 44/44/43 61/67/43 45/45/43
f 46/46/44 62/68/44 47/47/44
f 48/49/17 64/70/17 49/50/17
f 2/2/45 1/1/45 50/51/45
f 51/53/46 5/5/46 4/4/46
f 52/54/47 8/8/47 7/7/47
f 53/55/48 11/11/48 10/10/48
f 54/56/22 14/75/22 13/57/22
f 55/58/49 17/17/49 16/16/49
f 56/59/24 20/20/24 19/19/24
f 57/61/50 26/26/50 25/25/50
f 58/62/51 23/76/51 22/63/51
f 59/65/52 29/29/52 28/28/52
f 60/66/53 32/32/53 31/31/53
f 61/67/54 35/35/54 34/34/54
f 62/68/55 38/38/55 37/37/55
f 63/69/56 41/41/56 40/40/56
f 64/70/32 44/44/32 43/43/32
