# This file uses centimeters as units for non-parametric coordinates.

mtllib failureOBJ.mtl
g default
v -5.440004 1.597853 -29.417770
v 5.439996 1.597853 -29.417770
v -5.440001 1.597853 -4.337769
v 5.440000 1.597853 -4.337771
vt 0.962663 0.286103
vt 0.962663 0.741153
vt 0.032856 0.286103
vt 0.032856 0.741152
vn 0.000000 1.000000 0.000000
vn 0.000000 1.000000 0.000000
vn 0.000000 1.000000 0.000000
vn 0.000000 1.000000 0.000000
vn 0.000000 1.000000 0.000000
vn 0.000000 1.000000 0.000000
s off
g Mesh
usemtl lambert2SG
f 2/1/1 1/2/2 4/3/3
f 1/2/4 3/4/5 4/3/6
