# This file uses centimeters as units for non-parametric coordinates.

mtllib Title.mtl
g default
v -11.165496 -0.000000 5.598739
v 11.155030 -0.000000 5.598739
v -11.165496 1.897922 5.598739
v 11.155030 1.897922 5.598739
v -11.165496 1.897922 -4.652684
v 11.155030 1.897922 -4.652684
v -11.165496 -0.000000 -4.652684
v 11.155030 -0.000000 -4.652684
vt 0.005007 0.540568
vt 0.005007 0.461122
vt 0.010346 0.461122
vt 0.010346 0.540568
vt 0.994207 0.708700
vt 0.019769 0.709903
vt 0.019123 0.327121
vt 0.993561 0.325918
vt 0.996611 0.557957
vt 0.996611 0.450573
vt 0.996901 0.450573
vt 0.996901 0.557957
vt 0.996927 0.557957
vt 0.996927 0.450573
vt 0.998493 0.450573
vt 0.998493 0.557957
vt 0.998524 0.499893
vt 0.998524 0.450573
vt 0.998813 0.450573
vt 0.998813 0.499893
vt 0.998549 0.549735
vt 0.998549 0.500415
vt 0.998839 0.500415
vt 0.998839 0.549735
vn 0.000000 0.000000 1.000000
vn 0.000000 0.000000 1.000000
vn 0.000000 0.000000 1.000000
vn 0.000000 0.000000 1.000000
vn 0.000000 1.000000 0.000000
vn 0.000000 1.000000 0.000000
vn 0.000000 1.000000 0.000000
vn 0.000000 1.000000 0.000000
vn 0.000000 0.000000 -1.000000
vn 0.000000 0.000000 -1.000000
vn 0.000000 0.000000 -1.000000
vn 0.000000 0.000000 -1.000000
vn 0.000000 -1.000000 0.000000
vn 0.000000 -1.000000 0.000000
vn 0.000000 -1.000000 0.000000
vn 0.000000 -1.000000 0.000000
vn 1.000000 0.000000 0.000000
vn 1.000000 0.000000 0.000000
vn 1.000000 0.000000 0.000000
vn 1.000000 0.000000 0.000000
vn -1.000000 0.000000 0.000000
vn -1.000000 0.000000 0.000000
vn -1.000000 0.000000 0.000000
vn -1.000000 0.000000 0.000000
s off
g pCube1
usemtl lambert2SG
f 1/1/1 2/2/2 4/3/3 3/4/4
s 1
f 3/5/5 4/6/6 5/8/7
f 5/8/7 4/6/6 6/7/8
s off
f 5/9/9 6/10/10 8/11/11 7/12/12
f 7/13/13 8/14/14 2/15/15 1/16/16
f 2/17/17 8/18/18 6/19/19 4/20/20
f 7/21/21 1/22/22 3/23/23 5/24/24
