# This file uses centimeters as units for non-parametric coordinates.

mtllib Title2.mtl
g default
v -6.925951 0.000000 4.068094
v 6.881774 0.000000 4.068094
v -6.925951 1.574869 4.068094
v 6.881774 1.574869 4.068094
v -6.925951 1.574869 -3.981622
v 6.881774 1.574869 -3.981622
v -6.925951 0.000000 -3.981622
v 6.881774 0.000000 -3.981622
vt 0.979643 0.981655
vt 0.017660 0.981655
vt -0.001835 1.000886
vt 0.998165 1.000886
vt -0.001835 0.001224
vt 0.998165 0.001224
vt 0.017660 0.019996
vt 0.979643 0.019996
vn 0.000000 0.000000 1.000000
vn 0.000000 0.000000 1.000000
vn 0.000000 0.000000 1.000000
vn 0.000000 0.000000 1.000000
vn 0.000000 1.000000 0.000000
vn 0.000000 1.000000 0.000000
vn 0.000000 1.000000 0.000000
vn 0.000000 1.000000 0.000000
vn 0.000000 0.000000 -1.000000
vn 0.000000 0.000000 -1.000000
vn 0.000000 0.000000 -1.000000
vn 0.000000 0.000000 -1.000000
vn 0.000000 -1.000000 0.000000
vn 0.000000 -1.000000 0.000000
vn 0.000000 -1.000000 0.000000
vn 0.000000 -1.000000 0.000000
vn 1.000000 0.000000 0.000000
vn 1.000000 0.000000 0.000000
vn 1.000000 0.000000 0.000000
vn 1.000000 0.000000 0.000000
vn -1.000000 0.000000 0.000000
vn -1.000000 0.000000 0.000000
vn -1.000000 0.000000 0.000000
vn -1.000000 0.000000 0.000000
s 1
g pCube1
usemtl lambert2SG
f 1/1/1 2/2/2 3/4/3
f 3/4/3 2/2/2 4/3/4
s 2
f 3/4/5 4/3/6 5/6/7
f 5/6/7 4/3/6 6/5/8
s 3
f 5/6/9 6/5/10 7/8/11
f 7/8/11 6/5/10 8/7/12
s 4
f 7/8/13 8/7/14 1/1/15
f 1/1/15 8/7/14 2/2/16
s 5
f 2/2/17 8/7/18 4/3/19
f 4/3/19 8/7/18 6/5/20
s 6
f 7/8/21 1/1/22 5/6/23
f 5/6/23 1/1/22 3/4/24
