# Blender v2.69 (sub 0) OBJ File: ''
# www.blender.org
mtllib Trees.mtl
o Circle
v 0.000000 2.017356 -9.888710
v -1.929192 2.017356 -9.698701
v -3.784246 2.017356 -9.135977
v -5.493873 2.017356 -8.222161
v -6.992374 2.017356 -6.992374
v -8.222162 2.017356 -5.493873
v -9.135977 2.017356 -3.784245
v -9.698701 2.017356 -1.929192
v -9.888710 2.017356 -0.000001
v -9.698702 2.017356 1.929191
v -9.135977 2.017356 3.784244
v -8.222162 2.017356 5.493873
v -6.992374 2.017356 6.992374
v -5.493873 2.017356 8.222162
v -3.784244 2.017356 9.135978
v -1.929189 2.017356 9.698702
v 0.000003 2.017356 9.888710
v 1.929196 2.017356 9.698700
v 3.784250 2.017356 9.135975
v 5.493878 2.017356 8.222158
v 6.992379 2.017356 6.992370
v 8.222166 2.017356 5.493867
v 9.135980 2.017356 3.784238
v 9.698703 2.017356 1.929183
v 9.888710 2.017356 -0.000010
v 9.698699 2.017356 -1.929202
v 9.135972 2.017356 -3.784256
v 8.222156 2.017356 -5.493883
v 6.992365 2.017356 -6.992383
v 5.493862 2.017356 -8.222169
v 3.784232 2.017356 -9.135983
v 1.929177 2.017356 -9.698704
v 0.000000 2.971641 -9.888710
v -1.929192 2.971641 -9.698701
v -3.784246 2.971641 -9.135977
v -5.493873 2.971641 -8.222161
v -6.992374 2.971641 -6.992374
v -8.222162 2.971641 -5.493873
v -9.135977 2.971641 -3.784245
v -9.698701 2.971641 -1.929192
v -9.888710 2.971641 -0.000001
v -9.698702 2.971641 1.929191
v -9.135977 2.971641 3.784244
v -8.222162 2.971641 5.493873
v -6.992374 2.971641 6.992374
v -5.493873 2.971641 8.222162
v -3.784244 2.971641 9.135978
v -1.929189 2.971641 9.698702
v 0.000003 2.971641 9.888710
v 1.929196 2.971641 9.698700
v 3.784250 2.971641 9.135975
v 5.493878 2.971641 8.222158
v 6.992379 2.971641 6.992370
v 8.222166 2.971641 5.493867
v 9.135980 2.971641 3.784238
v 9.698703 2.971641 1.929183
v 9.888710 2.971641 -0.000010
v 9.698699 2.971641 -1.929202
v 9.135972 2.971641 -3.784256
v 8.222156 2.971641 -5.493883
v 6.992365 2.971641 -6.992383
v 5.493862 2.971641 -8.222169
v 3.784232 2.971641 -9.135983
v 1.929177 2.971641 -9.698704
vt 0.142622 0.787630
vt 0.142625 0.846446
vt 0.023145 0.787631
vt 0.501052 0.724756
vt 0.501051 0.783572
vt 0.620529 0.724757
vt 0.859603 0.913677
vt 0.859601 0.972492
vt 0.740126 0.913676
vt 0.381579 0.787628
vt 0.381580 0.846444
vt 0.262101 0.787629
vt 0.262100 0.724754
vt 0.262097 0.783569
vt 0.381576 0.724756
vt 0.142447 0.850590
vt 0.142448 0.909405
vt 0.022972 0.850591
vt 0.620534 0.787628
vt 0.620533 0.846443
vt 0.501057 0.787628
vt 0.023149 0.724750
vt 0.023145 0.783565
vt 0.142625 0.724753
vt 0.381399 0.850589
vt 0.381400 0.909405
vt 0.261923 0.850590
vt 0.859487 0.787631
vt 0.859483 0.846445
vt 0.740011 0.787629
vt 0.620354 0.850589
vt 0.620353 0.909405
vt 0.500876 0.850589
vt 0.262217 0.913675
vt 0.262218 0.972491
vt 0.142740 0.913676
vt 0.859484 0.724757
vt 0.859484 0.783573
vt 0.978962 0.724757
vt 0.859309 0.850589
vt 0.859308 0.909405
vt 0.739831 0.850589
vt 0.501172 0.913675
vt 0.501172 0.972490
vt 0.381694 0.913675
vt 0.620528 0.783572
vt 0.740006 0.724757
vt 0.740124 0.972491
vt 0.620649 0.913675
vt 0.262103 0.846445
vt 0.381574 0.783571
vt 0.979079 0.913678
vt 0.979077 0.972493
vt 0.501057 0.846443
vt 0.142621 0.783567
vt 0.261924 0.909405
vt 0.740008 0.846444
vt 0.500876 0.909404
vt 0.142742 0.972492
vt 0.023262 0.913677
vt 0.978962 0.787633
vt 0.978958 0.846447
vt 0.739831 0.909405
vt 0.381695 0.972490
vt 0.740006 0.783572
vt 0.978787 0.850589
vt 0.978786 0.909405
vt 0.620648 0.972490
vt 0.023148 0.846447
vt 0.022973 0.909405
vt 0.978962 0.783573
vt 0.023265 0.972493
vn -0.098017 0.000000 0.995185
vn -0.773011 0.000000 -0.634393
vn 0.956940 0.000000 -0.290285
vn -0.471395 0.000000 0.881922
vn -0.471397 0.000000 -0.881921
vn 0.995185 0.000000 0.098017
vn -0.773009 0.000000 0.634394
vn -0.098018 0.000000 -0.995185
vn 0.881921 0.000000 0.471397
vn -0.956940 0.000000 0.290286
vn 0.634393 0.000000 0.773010
vn 0.290283 0.000000 -0.956941
vn -0.995185 0.000000 -0.098016
vn 0.290284 0.000000 0.956940
vn 0.634393 0.000000 -0.773010
vn -0.881922 0.000000 -0.471396
vn 0.881921 0.000000 -0.471396
vn -0.290283 0.000000 0.956941
vn -0.634394 0.000000 -0.773010
vn 0.995185 0.000000 -0.098017
vn -0.634393 0.000000 0.773011
vn -0.290284 0.000000 -0.956940
vn 0.956940 0.000000 0.290284
vn -0.881921 0.000000 0.471397
vn 0.773011 0.000000 0.634393
vn 0.098017 0.000000 -0.995185
vn -0.995185 0.000000 0.098018
vn 0.471397 0.000000 0.881921
vn 0.471397 0.000000 -0.881921
vn -0.956941 0.000000 -0.290284
vn 0.098018 0.000000 0.995185
vn 0.773010 0.000000 -0.634393
vn -0.471396 0.000000 0.881922
vn -0.773009 0.000000 0.634395
vn 0.634393 0.000000 0.773011
vn 0.290285 0.000000 -0.956940
vn 0.634393 0.000000 -0.773011
vn 0.881922 0.000000 -0.471396
vn -0.634392 0.000000 0.773012
vn -0.290285 0.000000 -0.956940
vn 0.956940 0.000000 0.290285
vn 0.773010 0.000000 0.634394
vn 0.471398 0.000000 0.881921
vn -0.956940 0.000000 -0.290284
vn 0.098017 0.000000 0.995185
usemtl None
s off
f 32/1/1 64/2/1 1/3/1
f 21/4/2 53/5/2 22/6/2
f 10/7/3 42/8/3 11/9/3
f 30/10/4 62/11/4 31/12/4
f 19/13/5 51/14/5 20/15/5
f 8/16/6 40/17/6 9/18/6
f 28/19/7 60/20/7 29/21/7
f 17/22/8 49/23/8 18/24/8
f 6/25/9 38/26/9 7/27/9
f 26/28/10 58/29/10 27/30/10
f 4/31/11 36/32/11 5/33/11
f 15/34/12 47/35/12 16/36/12
f 24/37/13 56/38/13 25/39/13
f 2/40/14 34/41/14 3/42/14
f 13/43/15 45/44/15 14/45/15
f 22/6/16 54/46/16 23/47/16
f 11/9/17 43/48/17 12/49/17
f 31/12/18 63/50/18 32/1/18
f 20/15/19 52/51/19 21/4/19
f 9/52/20 41/53/20 10/7/20
f 29/21/21 61/54/21 30/10/21
f 18/24/22 50/55/22 19/13/22
f 7/27/23 39/56/23 8/16/23
f 27/30/24 59/57/24 28/19/24
f 5/33/25 37/58/25 6/25/25
f 16/36/26 48/59/26 17/60/26
f 25/61/27 57/62/27 26/28/27
f 3/42/28 35/63/28 4/31/28
f 14/45/29 46/64/29 15/34/29
f 23/47/30 55/65/30 24/37/30
f 1/66/31 33/67/31 2/40/31
f 12/49/32 44/68/32 13/43/32
f 64/2/1 33/69/1 1/3/1
f 53/5/2 54/46/2 22/6/2
f 42/8/3 43/48/3 11/9/3
f 62/11/33 63/50/33 31/12/33
f 51/14/5 52/51/5 20/15/5
f 40/17/6 41/70/6 9/18/6
f 60/20/34 61/54/34 29/21/34
f 49/23/8 50/55/8 18/24/8
f 38/26/9 39/56/9 7/27/9
f 58/29/10 59/57/10 27/30/10
f 36/32/35 37/58/35 5/33/35
f 47/35/36 48/59/36 16/36/36
f 56/38/13 57/71/13 25/39/13
f 34/41/14 35/63/14 3/42/14
f 45/44/37 46/64/37 14/45/37
f 54/46/16 55/65/16 23/47/16
f 43/48/38 44/68/38 12/49/38
f 63/50/18 64/2/18 32/1/18
f 52/51/19 53/5/19 21/4/19
f 41/53/20 42/8/20 10/7/20
f 61/54/39 62/11/39 30/10/39
f 50/55/40 51/14/40 19/13/40
f 39/56/41 40/17/41 8/16/41
f 59/57/24 60/20/24 28/19/24
f 37/58/42 38/26/42 6/25/42
f 48/59/26 49/72/26 17/60/26
f 57/62/27 58/29/27 26/28/27
f 35/63/43 36/32/43 4/31/43
f 46/64/29 47/35/29 15/34/29
f 55/65/44 56/38/44 24/37/44
f 33/67/45 34/41/45 2/40/45
f 44/68/32 45/44/32 13/43/32
