# Blender v2.69 (sub 0) OBJ File: ''
# www.blender.org
mtllib Water.mtl
o pCylinder1
v 0.045791 1.760222 0.033420
v 7.817621 1.760222 -5.613143
v 8.604596 1.760222 -4.327507
v 9.182122 1.760222 -2.935154
v 5.692354 1.760222 -7.738409
v 6.838097 1.760222 -6.758885
v 3.014364 1.760222 -9.102911
v 4.406719 1.760222 -8.525384
v 0.045790 1.760222 -9.573089
v 1.548464 1.760222 -9.454088
v -2.922784 1.760222 -9.102911
v -1.456883 1.760222 -9.454088
v -5.600772 1.760222 -7.738407
v -4.315138 1.760222 -8.525383
v -7.726034 1.760222 -5.613142
v -6.746513 1.760222 -6.758883
v -9.090536 1.760222 -2.935153
v -8.513009 1.760222 -4.327507
v -9.560714 1.760222 0.033420
v -9.441713 1.760222 -1.469253
v -9.090536 1.760222 3.001993
v -9.441713 1.760222 1.536094
v -7.726034 1.760222 5.679982
v -8.513009 1.760222 4.394349
v -5.600771 1.760222 7.805244
v -6.746513 1.760222 6.825723
v -2.922783 1.760222 9.169747
v -4.315136 1.760222 8.592219
v 0.045790 1.760222 9.639923
v -1.456883 1.760222 9.520922
v 3.014363 1.760222 9.169746
v 1.548463 1.760222 9.520922
v 5.692351 1.760222 7.805244
v 4.406716 1.760222 8.592219
v 7.817615 1.760222 5.679982
v 6.838093 1.760222 6.825723
v 9.182116 1.760222 3.001993
v 8.604589 1.760222 4.394348
v 9.652293 1.760222 0.033420
v 9.533293 1.760222 1.536093
v 9.533295 1.760222 -1.469253
vt 0.949941 0.385795
vt 0.503220 0.492812
vt 0.927668 0.317243
vt 0.961147 0.456998
vt 0.961147 0.529077
vt 0.949802 0.600258
vt 0.927528 0.668810
vt 0.894742 0.733001
vt 0.852374 0.791314
vt 0.801356 0.842231
vt 0.743043 0.884598
vt 0.678788 0.917259
vt 0.610237 0.939532
vt 0.539034 0.950738
vt 0.466955 0.950738
vt 0.395775 0.939393
vt 0.327223 0.917120
vt 0.263032 0.884334
vt 0.204719 0.841967
vt 0.153801 0.790950
vt 0.111434 0.732636
vt 0.078773 0.668381
vt 0.056500 0.599830
vt 0.045293 0.528627
vt 0.045293 0.456548
vt 0.056638 0.385367
vt 0.078912 0.316816
vt 0.111698 0.252625
vt 0.154066 0.194311
vt 0.205083 0.143394
vt 0.263396 0.101026
vt 0.327651 0.068366
vt 0.396203 0.046092
vt 0.467405 0.034886
vt 0.539485 0.034885
vt 0.610666 0.046231
vt 0.679217 0.068504
vt 0.743408 0.101290
vt 0.801722 0.143657
vt 0.852640 0.194675
vt 0.895007 0.252988
vn 0.000000 1.000000 0.000000
usemtl lambert2SG
s off
f 21/1/1 1/2/1 22/3/1
f 21/1/1 24/4/1 1/2/1
f 23/5/1 1/2/1 24/4/1
f 23/5/1 26/6/1 1/2/1
f 25/7/1 1/2/1 26/6/1
f 25/7/1 28/8/1 1/2/1
f 27/9/1 1/2/1 28/8/1
f 27/9/1 30/10/1 1/2/1
f 29/11/1 1/2/1 30/10/1
f 29/11/1 32/12/1 1/2/1
f 31/13/1 1/2/1 32/12/1
f 31/13/1 34/14/1 1/2/1
f 33/15/1 1/2/1 34/14/1
f 33/15/1 36/16/1 1/2/1
f 35/17/1 1/2/1 36/16/1
f 35/17/1 38/18/1 1/2/1
f 37/19/1 1/2/1 38/18/1
f 37/19/1 40/20/1 1/2/1
f 39/21/1 1/2/1 40/20/1
f 39/21/1 41/22/1 1/2/1
f 4/23/1 1/2/1 41/22/1
f 3/24/1 1/2/1 4/23/1
f 2/25/1 1/2/1 3/24/1
f 2/25/1 6/26/1 1/2/1
f 5/27/1 1/2/1 6/26/1
f 5/27/1 8/28/1 1/2/1
f 7/29/1 1/2/1 8/28/1
f 7/29/1 10/30/1 1/2/1
f 9/31/1 1/2/1 10/30/1
f 9/31/1 12/32/1 1/2/1
f 11/33/1 1/2/1 12/32/1
f 11/33/1 14/34/1 1/2/1
f 13/35/1 1/2/1 14/34/1
f 13/35/1 16/36/1 1/2/1
f 15/37/1 1/2/1 16/36/1
f 15/37/1 18/38/1 1/2/1
f 17/39/1 1/2/1 18/38/1
f 17/39/1 20/40/1 1/2/1
f 19/41/1 1/2/1 20/40/1
f 19/41/1 22/3/1 1/2/1
